<svg width="161" height="81" xmlns="http://www.w3.org/2000/svg"><g fill="none" fill-rule="evenodd"><path d="M120.728 80.46c22.217 0 40.227-18.011 40.227-40.228 0-22.217-18.01-40.228-40.227-40.228C98.51.004 80.5 18.014 80.5 40.232c0 22.217 18.01 40.227 40.228 40.227" fill="#0032A0"/><path d="M123.253 39.992a3.53 3.53 0 0 1 3.52-3.52 3.53 3.53 0 0 1 3.52 3.52 3.53 3.53 0 0 1-3.52 3.52 3.53 3.53 0 0 1-3.52-3.52m-1.757 0a5.277 5.277 0 1 0 10.555-.002 5.277 5.277 0 0 0-10.555.002m-9.841 0a3.53 3.53 0 0 1 3.52-3.52 3.53 3.53 0 0 1 3.52 3.52 3.53 3.53 0 0 1-3.52 3.52 3.53 3.53 0 0 1-3.52-3.52m-1.757 0a5.277 5.277 0 1 0 10.555-.001 5.277 5.277 0 0 0-10.555.001m-.859 0a5.277 5.277 0 0 0-5.277-5.277c-1.844 0-3.463.95-4.406 2.384v-5.902h-1.74V44.9h1.74v-2.016a5.267 5.267 0 0 0 4.406 2.384 5.277 5.277 0 0 0 5.277-5.277m-1.757 0a3.53 3.53 0 0 1-3.52 3.52 3.53 3.53 0 0 1-3.52-3.52 3.53 3.53 0 0 1 3.52-3.52 3.53 3.53 0 0 1 3.52 3.52m26.094-4.884v9.771h1.757v-8.015h3.228v8.015h1.757v-8.015h3.227v8.015h1.757v-9.771z" fill="#FFF"/><path fill="#000" d="M.045 80.46H80.5V.003H.045z"/><path d="M27.464 36.472c1.408 0 2.62.96 2.99 2.25H24.24a3.44 3.44 0 0 1 3.225-2.25m-5.18 3.422c0 2.973 2.209 5.375 5.375 5.375a5.402 5.402 0 0 0 3.793-1.562l-1.232-1.271a3.604 3.604 0 0 1-2.56 1.076c-1.975 0-3.324-1.31-3.578-3.032h8.269v-.88a4.887 4.887 0 0 0-4.887-4.886 5.188 5.188 0 0 0-5.18 5.179m36.288 9.764V35.083h-1.74V37.1a5.267 5.267 0 0 0-4.407-2.383 5.277 5.277 0 0 0 0 10.553c1.845 0 3.463-.95 4.407-2.384v5.032h-4.406v1.74h6.146zm-2.627-9.665a3.53 3.53 0 0 1-3.52 3.52 3.53 3.53 0 0 1-3.52-3.52 3.53 3.53 0 0 1 3.52-3.52 3.53 3.53 0 0 1 3.52 3.52zm-12.191-8.015c0 .645.527 1.172 1.172 1.172.644 0 1.171-.527 1.171-1.172 0-.644-.527-1.171-1.171-1.171-.645 0-1.172.527-1.172 1.171zm.293 12.901h1.757v-9.771h-1.757v9.771zm-6.305-1.268c-1.663 0-2.543-.782-2.543-1.565v-.194h-1.756v.195c0 1.758 1.561 3.223 4.299 3.223 2.737 0 4.299-1.465 4.299-3.223 0-4.106-6.842-2.19-6.842-4.165 0-.782.88-1.506 2.543-1.506 1.662 0 2.542.782 2.542 1.565v.194h1.757v-.195c0-1.758-1.562-3.223-4.3-3.223-2.737 0-4.298 1.465-4.298 3.223 0 3.91 6.84 1.897 6.84 4.165 0 .782-.88 1.506-2.541 1.506m22.68 1.29h1.76v-5.974c.04-1.372 1.176-2.45 2.744-2.45 1.607 0 2.352 1.137 2.352 2.548V44.9h1.761v-6.27c0-2.174-1.33-3.915-3.819-3.915-2.058 0-3.038 1.76-3.038 1.76v-1.368h-1.76V44.9zm-39.316-.022V31.197h-1.832v4.124h-7.77v9.58h9.58v-.023h.022zm-7.77-1.81h5.915v-5.915h-5.915v5.915z" fill="#FFF"/></g></svg>